<?xml version="1.0" encoding="UTF-8" standalone="no"?>
<!-- Created with Inkscape (http://www.inkscape.org/) -->

<svg
   width="4.2333331mm"
   height="4.2333331mm"
   viewBox="0 0 4.2333331 4.2333331"
   version="1.1"
   id="svg1"
   xml:space="preserve"
   xmlns="http://www.w3.org/2000/svg"
   xmlns:svg="http://www.w3.org/2000/svg"><defs
     id="defs1" /><g
     id="layer1"><path
       style="fill:#000000;stroke-width:0.0269823"
       d="m 0.77579484,3.3408801 c -0.0956,-0.020731 -0.20892,-0.090583 -0.26832,-0.1653878 -0.0661,-0.083189 -0.11056,-0.2061187 -0.11056,-0.3054116 0,-0.1646901 0.0961,-0.3304509 0.24094,-0.4154591 l 0.0303,-0.017811 V 2.3343383 c 0,-0.8028705 0.64815996,-1.45248612 1.44922996,-1.45248612 0.54678,0 1.04412,0.30636782 1.29399,0.79711682 0.10322,0.2027282 0.15524,0.4223571 0.15524,0.6553693 v 0.1024723 l 0.0303,0.017811 c 0.10931,0.064168 0.19698,0.1806167 0.22597,0.30014 0.0535,0.2205893 -0.0554,0.4503594 -0.25988,0.5484291 -0.1078,0.051697 -0.0138,0.048578 -1.44923,0.048085 -1.07698,-3.697e-4 -1.29980996,-0.0021 -1.33805996,-0.010395 z M 3.4030148,3.0225608 c 0.11459,-0.034331 0.14782,-0.1873774 0.059,-0.2716808 -0.0468,-0.04439 0.0494,-0.041428 -1.34459,-0.041428 -1.13310996,0 -1.27408996,0.0012 -1.29774996,0.011087 -0.10959,0.045778 -0.13263,0.1991295 -0.0409,0.2723098 0.0137,0.010938 0.0354,0.023687 0.0482,0.028331 0.0329,0.011945 2.53630996,0.013286 2.57604996,0.00138 z m -0.15989,-0.739668 c -0.0108,-0.255047 -0.10024,-0.4827762 -0.2682,-0.6826242 l -0.0472,-0.056172 -0.004,0.091867 c -0.004,0.1005557 -0.0106,0.1227094 -0.0447,0.158775 -0.0307,0.032462 -0.0722,0.05054 -0.11648,0.05073 -0.0659,2.822e-4 -0.11576,-0.030666 -0.1427,-0.088519 -0.0165,-0.035457 -0.0169,-0.040782 -0.017,-0.2409649 l -7e-5,-0.2047067 -0.076,-0.029695 c -0.0641,-0.025076 -0.20703,-0.06391 -0.23597,-0.064131 -0.006,-4.85e-5 -0.009,0.075658 -0.0107,0.3086997 -0.002,0.3005929 -0.003,0.3095201 -0.0176,0.3373206 -0.0315,0.058439 -0.0816,0.089238 -0.14522,0.089238 -0.0636,0 -0.11368,-0.030799 -0.14522,-0.089238 -0.015,-0.027804 -0.0155,-0.036713 -0.0176,-0.3380367 l -0.002,-0.3094806 -0.0264,0.00461 c -0.0644,0.011269 -0.15339,0.036436 -0.2209,0.062467 l -0.0732,0.028218 v 0.2031637 c 0,0.2182983 -10e-4,0.2287481 -0.0391,0.2781064 -0.036,0.047169 -0.12093,0.066935 -0.18064,0.042031 -0.0311,-0.012957 -0.0693,-0.047808 -0.0858,-0.078168 -0.008,-0.015452 -0.0127,-0.048168 -0.0155,-0.1174609 l -0.004,-0.096044 -0.0472,0.056779 c -0.0955,0.1149057 -0.16246,0.232266 -0.2093,0.3668465 -0.0373,0.1069966 -0.0538,0.1961235 -0.0589,0.316385 l -0.004,0.1053012 h 1.13014 1.13014 z"
       id="path2" /></g></svg>
